<?xml version="1.0" standalone="no"?>
<!DOCTYPE svg PUBLIC "-//W3C//DTD SVG 20010904//EN"
 "http://www.w3.org/TR/2001/REC-SVG-20010904/DTD/svg10.dtd">
<svg version="1.0" xmlns="http://www.w3.org/2000/svg"
 width="512.000000pt" height="512.000000pt" viewBox="0 0 512.000000 512.000000"
 preserveAspectRatio="xMidYMid meet">

<g transform="translate(0.000000,512.000000) scale(0.100000,-0.100000)"
fill="#000000" stroke="none">
<path d="M1602 4340 c-189 -46 -344 -174 -427 -355 -54 -117 -56 -140 -58
-564 l-2 -391 -68 0 c-87 0 -129 -17 -150 -63 -24 -51 -25 -502 -1 -552 21
-45 67 -65 148 -65 l66 0 0 -747 c0 -731 1 -749 21 -793 43 -95 102 -130 230
-138 111 -6 175 9 228 55 58 49 74 85 80 178 l6 80 883 3 882 2 0 -53 c0 -109
40 -189 116 -233 60 -35 200 -45 286 -20 65 19 129 76 150 134 10 29 13 191
11 785 l-1 747 69 0 c76 0 118 15 143 52 14 19 16 64 16 290 l0 268 -29 32
c-28 31 -34 33 -113 38 l-83 5 -5 405 c-5 354 -8 412 -24 460 -72 221 -245
385 -463 440 -75 19 -113 20 -958 19 -804 -1 -886 -3 -953 -19z m1739 -230
c29 -16 51 -67 44 -101 -4 -16 -18 -38 -32 -49 -25 -20 -39 -20 -798 -20
l-772 0 -27 26 c-37 37 -35 86 3 125 l29 29 767 0 c506 0 773 -3 786 -10z
m245 -395 c30 -19 60 -49 79 -79 l30 -49 3 -646 c2 -634 2 -647 -18 -679 -40
-65 15 -62 -1126 -62 -1144 0 -1083 -3 -1118 63 -16 29 -17 89 -14 684 l3 651
30 43 c17 23 42 51 56 61 65 49 40 47 1065 45 l961 -2 49 -30z"/>
</g>
</svg>
